Coordinates
version=1
nRows=28
nColumns=23
inDegrees=yes

Units are S.I. units (second, meters, Newtons, ...)
If the header above contains a line with 'inDegrees', this indicates whether rotational values are in degrees (yes) or radians (no).

endheader
time	pelvis_tilt	pelvis_list	pelvis_rotation	pelvis_tx	pelvis_ty	pelvis_tz	hip_flexion_r	hip_adduction_r	hip_rotation_r	knee_angle_r	knee_angle_r_beta	ankle_angle_r	subtalar_angle_r	mtp_angle_r	hip_flexion_l	hip_adduction_l	hip_rotation_l	knee_angle_l	knee_angle_l_beta	ankle_angle_l	subtalar_angle_l	mtp_angle_l
      7.50000000	     -8.71168822	      3.70072139	      4.48430813	      2.12663826	      0.98529516	      1.03504073	    -15.74826568	     -3.50893855	    -19.78815592	     17.81073294	      0.31085593	    -16.31910685	      1.71768012	      0.00000000	     42.29085599	      5.24168257	     -2.20622013	     47.87581919	      0.83559068	     -2.98616240	    -18.31130239	      0.00000000
      7.50666667	     -8.86859966	      3.46857917	      4.68772229	      2.12884452	      0.98677221	      1.03520200	    -16.62789413	     -3.05001217	    -19.16690792	     17.77352790	      0.31020658	    -17.89088959	      0.29925326	      0.00000000	     41.74141026	      5.01999788	     -2.62717476	     43.58915251	      0.76077423	     -2.58667018	    -15.93167544	      0.00000000
      7.51333333	     -9.13344076	      3.15083627	      5.05508341	      2.13068438	      0.98748942	      1.03499988	    -17.05765461	     -2.63447113	    -19.10608559	     18.52645539	      0.32334765	    -18.60017812	     -0.57872916	      0.00000000	     41.27769251	      4.96090691	     -2.68172614	     39.40738443	      0.68778861	     -2.53616902	    -13.80376831	      0.00000000
      7.52000000	     -8.89919730	      2.91526825	      5.08089761	      2.13246662	      0.98849364	      1.03537491	    -17.89502843	     -2.18393226	    -18.19235571	     19.37388486	      0.33813808	    -19.45447758	     -2.84981660	      0.00000000	     40.27681502	      4.53657076	     -3.58181880	     35.54951919	      0.62045616	     -2.05945813	    -10.28541747	      0.00000000
      7.52666667	     -8.89643236	      2.65812535	      5.35822551	      2.13383458	      0.98859808	      1.03516123	    -18.17211612	     -1.88024454	    -18.15845219	     21.00760990	      0.36665196	    -19.56641250	     -4.38286613	      0.00000000	     39.50828831	      4.46272672	     -3.92153632	     31.87776857	      0.55637202	     -2.12550256	     -7.69548031	      0.00000000
      7.53333333	     -8.81588820	      2.39267375	      5.64781652	      2.13495885	      0.98832660	      1.03481784	    -18.34239654	     -1.60452052	    -18.26007417	     23.01068720	      0.40161225	    -19.38283287	     -5.95862127	      0.00000000	     38.70046848	      4.39246486	     -4.31953345	     28.61381168	      0.49940523	     -2.31611786	     -5.04920383	      0.00000000
      7.54000000	     -8.72998081	      2.07726258	      6.00819884	      2.13586024	      0.98761095	      1.03419417	    -18.35636613	     -1.33186009	    -18.61142600	     25.32984647	      0.44208922	    -18.90995158	     -7.40221701	      0.00000000	     37.95319281	      4.36862376	     -4.60827949	     25.82380007	      0.45071034	     -2.59171668	     -2.71370881	      0.00000000
      7.54666667	     -8.56079800	      2.02236831	      6.24522573	      2.13657448	      0.98657296	      1.03358849	    -18.26496870	     -1.52618329	    -19.29056691	     28.11887875	      0.49076702	    -18.43629313	     -8.67059258	      0.00000000	     37.13917844	      4.47722868	     -5.30477802	     23.53165170	      0.41070480	     -2.94978804	     -0.65578749	      0.00000000
      7.55333333	     -8.44598919	      2.07086815	      6.54547961	      2.13717298	      0.98504979	      1.03262807	    -18.00512636	     -1.99753896	    -20.38794147	     31.21000538	      0.54471735	    -17.70859869	     -9.63297473	      0.00000000	     36.40935376	      4.74986529	     -6.06478029	     21.73751477	      0.37939120	     -3.36447925	      0.86811688	      0.00000000
      7.56000000	     -8.25145172	      2.18130043	      7.00179085	      2.13751008	      0.98314922	      1.03131362	    -17.70112570	     -2.56821265	    -21.60425648	     34.58610493	      0.60364141	    -16.99042956	    -10.39339710	      0.00000000	     35.68912438	      5.19986118	     -6.62475081	     20.58590899	      0.35929189	     -3.81752916	      1.75051346	      0.00000000
      7.56666667	     -8.02796321	      2.42102581	      7.55756394	      2.13777007	      0.98095195	      1.02966785	    -17.38366707	     -3.25951997	    -22.75233200	     38.02988037	      0.66374663	    -16.51574071	    -11.74835041	      0.00000000	     34.95249359	      5.82708941	     -7.15580739	     19.96084224	      0.34838242	     -4.17384290	      2.18644730	      0.00000000
      7.57333333	     -7.88772468	      2.79817518	      7.99384912	      2.13798244	      0.97834234	      1.02809672	    -16.87603019	     -4.34498286	    -24.07619321	     41.72654270	      0.72826556	    -16.11934579	    -12.83559076	      0.00000000	     34.24525038	      6.49051938	     -7.95706201	     19.71029957	      0.34400962	     -4.46610606	      2.01984848	      0.00000000
      7.58000000	     -7.76336297	      3.32949663	      8.52774686	      2.13802561	      0.97527503	      1.02627916	    -16.26921190	     -5.67424945	    -25.42913652	     45.65181849	      0.79677454	    -15.59174411	    -13.73389257	      0.00000000	     33.53255471	      7.37096443	     -8.57849541	     19.87897830	      0.34695362	     -4.68400878	      1.29440901	      0.00000000
      7.58666667	     -7.58357557	      3.85270121	      9.08142281	      2.13792704	      0.97202979	      1.02448555	    -15.62403086	     -6.90281913	    -26.40712119	     49.54548813	      0.86473190	    -15.52648810	    -15.50502148	      0.00000000	     32.77844010	      8.20830792	     -9.13228198	     20.51591592	      0.35807028	     -4.56758882	      0.39694949	      0.00000000
      7.59333333	     -7.43926387	      4.43844709	      9.62672650	      2.13759243	      0.96843585	      1.02277200	    -14.81657648	     -8.24003511	    -27.22125444	     53.55823228	      0.93476749	    -15.59682291	    -17.51656934	      0.00000000	     32.04115367	      9.09437981	     -9.52376747	     21.49414129	      0.37514354	     -4.10598503	     -0.81091594	      0.00000000
      7.60000000	     -7.10632831	      5.01020658	     10.22525473	      2.13706873	      0.96483277	      1.02109965	    -14.12809889	     -9.49563947	    -27.91001424	     57.52322977	      1.00396976	    -15.79816872	    -19.72848947	      0.00000000	     31.12430299	      9.93475644	     -9.72298554	     22.87313286	      0.39921148	     -3.10276078	     -2.04354950	      0.00000000
      7.60666667	     -7.34438343	      5.69287692	     10.71249442	      2.13596032	      0.96023612	      1.01965013	    -12.56023092	    -11.07495917	    -28.23776127	     61.83435978	      1.07921317	    -15.94257084	    -22.09899298	      0.00000000	     30.75170236	     10.97341441	     -9.64013705	     24.29026036	      0.42394502	     -2.06889575	     -3.75683503	      0.00000000
      7.61333333	     -7.39996230	      6.35432974	     11.25723965	      2.13448897	      0.95574128	      1.01828667	    -11.07519144	    -12.56638204	    -28.44567515	     66.07815301	      1.15328133	    -16.03787293	    -24.31548153	      0.00000000	     30.22100078	     12.01584773	     -9.20401591	     25.97234133	      0.45330287	     -0.60883362	     -5.82124669	      0.00000000
      7.62000000	     -7.52370390	      7.02602048	     11.79897280	      2.13266068	      0.95104435	      1.01707434	     -9.36672985	    -14.09181657	    -28.45940624	     70.32406146	      1.22738642	    -15.96153159	    -26.34526477	      0.00000000	     29.82698089	     13.04411096	     -8.76166885	     27.90756962	      0.48707898	      1.24000354	     -7.44709931	      0.00000000
      7.62666667	     -7.59223726	      7.68787457	     12.35587304	      2.13045321	      0.94642440	      1.01599767	     -7.57433603	    -15.57590911	    -28.29829156	     74.49960344	      1.30026337	    -15.69984817	    -27.72098602	      0.00000000	     29.42057120	     14.05146363	     -8.18177237	     30.00460200	      0.52367910	      3.33747767	     -9.09750734	      0.00000000
      7.63333333	     -8.03579586	      8.39377759	     12.83359201	      2.12762510	      0.94136697	      1.01504759	     -5.11097222	    -17.26102123	    -27.77962864	     78.79993447	      1.37531831	    -14.86895055	    -28.46974968	      0.00000000	     29.40269041	     15.19638082	     -7.42305673	     31.99077524	      0.55834436	      5.15243111	    -11.08793386	      0.00000000
      7.64000000	     -8.17817574	      8.97585296	     13.37057712	      2.12462483	      0.93696193	      1.01422725	     -2.86392075	    -18.64928949	    -27.15298485	     82.80121148	      1.44515376	    -13.99803693	    -28.88140463	      0.00000000	     29.09347617	     16.13947712	     -6.57046185	     34.09160785	      0.59501080	      7.25713744	    -12.59927231	      0.00000000
      7.64666667	     -8.68522543	      9.64526385	     13.74759750	      2.12115504	      0.93236411	      1.01372317	      0.11960910	    -20.12203086	    -25.89512769	     86.79467686	      1.51485288	    -13.04779032	    -29.08088270	      0.00000000	     29.10385608	     17.21048014	     -5.67546977	     35.93058342	      0.62710698	      8.83996708	    -14.41237861	      0.00000000
      7.65333333	     -9.02571520	     10.17948985	     14.09500968	      2.11761866	      0.92838569	      1.01342814	      3.09224562	    -21.30121518	    -24.43666189	     90.47553277	      1.57909594	    -12.10882112	    -29.17830626	      0.00000000	     28.89381429	     18.06068162	     -4.73773297	     37.69609000	      0.65792089	     10.52035282	    -15.84848720	      0.00000000
      7.66000000	     -9.34964648	     10.55484047	     14.35368886	      2.11405064	      0.92484443	      1.01336612	      6.27549377	    -22.15704564	    -22.66744925	     93.86521634	      1.63825708	    -11.27790096	    -29.20850050	      0.00000000	     28.62103773	     18.65015849	     -3.86896250	     39.34679702	      0.68673116	     12.25933840	    -16.73234814	      0.00000000
      7.66666667	     -9.63732986	     10.89295830	     14.39883177	      2.11055331	      0.92184160	      1.01371421	      9.66137761	    -22.78938252	    -20.50091311	     96.95273755	      1.69214449	    -10.58933452	    -29.19323456	      0.00000000	     28.19632490	     19.06481527	     -3.13057501	     40.71576648	      0.71062418	     13.80400246	    -17.52441321	      0.00000000
      7.67333333	     -9.87347644	     11.07213552	     14.27744227	      2.10718420	      0.91938204	      1.01438941	     13.18644603	    -23.04207434	    -18.09161779	     99.68950366	      1.73991007	     -9.97748611	    -29.10534278	      0.00000000	     27.63252696	     19.19246787	     -2.49666901	     41.87589186	      0.73087219	     15.26801090	    -18.00077343	      0.00000000
      7.68000000	    -10.06267701	     11.18060709	     13.93210483	      2.10403269	      0.91747479	      1.01543982	     16.81264500	    -22.99744606	    -15.44414717	    102.06109580	      1.78130216	     -9.52601371	    -28.93905074	      0.00000000	     26.90650585	     19.09244334	     -2.08541564	     42.76358727	      0.74636540	     16.60561723	    -18.27356797	      0.00000000
